<?xml version="1.0" encoding="UTF-8"?>
<!DOCTYPE svg PUBLIC "-//W3C//DTD SVG 1.1//EN" "http://www.w3.org/Graphics/SVG/1.1/DTD/svg11.dtd">
<svg xmlns="http://www.w3.org/2000/svg" version="1.1" width="1000px" height="1000px" style="shape-rendering:geometricPrecision; text-rendering:geometricPrecision; image-rendering:optimizeQuality; fill-rule:evenodd; clip-rule:evenodd" xmlns:xlink="http://www.w3.org/1999/xlink">
<g><path style="opacity:1" fill="#1e3224" d="M 468.5,317.5 C 544.527,314.253 602.027,344.92 641,409.5C 670.236,468.182 669.569,526.515 639,584.5C 600.613,645.617 545.113,675.117 472.5,673C 409.201,666.955 361.368,636.788 329,582.5C 298.725,523.657 299.058,464.99 330,406.5C 361.657,354.358 407.823,324.692 468.5,317.5 Z M 470.5,337.5 C 531.709,335.025 580.209,358.358 616,407.5C 648.667,460.841 651,515.508 623,571.5C 586.984,630.76 534.15,657.594 464.5,652C 397.063,640.231 352.896,601.731 332,536.5C 317.478,472.073 334.645,417.906 383.5,374C 408.963,353.347 437.963,341.181 470.5,337.5 Z"/></g>
<g><path style="opacity:1" fill="#1e3224" d="M 384.5,416.5 C 419.833,416.5 455.167,416.5 490.5,416.5C 490.5,466.167 490.5,515.833 490.5,565.5C 482.833,565.5 475.167,565.5 467.5,565.5C 467.5,523.5 467.5,481.5 467.5,439.5C 447.833,439.5 428.167,439.5 408.5,439.5C 408.5,481.5 408.5,523.5 408.5,565.5C 400.5,565.5 392.5,565.5 384.5,565.5C 384.5,515.833 384.5,466.167 384.5,416.5 Z"/></g>
<g><path style="opacity:1" fill="#1e3224" d="M 509.5,478.5 C 515.167,478.5 520.833,478.5 526.5,478.5C 526.5,490.833 526.5,503.167 526.5,515.5C 540.167,515.5 553.833,515.5 567.5,515.5C 567.5,503.167 567.5,490.833 567.5,478.5C 573.167,478.5 578.833,478.5 584.5,478.5C 584.5,507.5 584.5,536.5 584.5,565.5C 578.833,565.5 573.167,565.5 567.5,565.5C 567.5,553.5 567.5,541.5 567.5,529.5C 553.833,529.5 540.167,529.5 526.5,529.5C 526.5,541.5 526.5,553.5 526.5,565.5C 520.833,565.5 515.167,565.5 509.5,565.5C 509.5,536.5 509.5,507.5 509.5,478.5 Z"/></g>
</svg>
